<svg xmlns="http://www.w3.org/2000/svg" version="1.1" viewBox="1.5336997509002686 2.425305128097534 435.6492004394531 431.0705261230469" width="439.00" height="435.00">
<path fill="#0d0d0e" d="&#10;  M 416.66 309.11&#10;  C 415.33 312.19 414.42 315.16 412.56 317.86&#10;  C 408.81 323.31 406.37 329.32 402.63 334.71&#10;  Q 396.93 342.94 391.15 350.43&#10;  C 386.98 355.82 381.74 360.55 377.36 365.80&#10;  C 373.64 370.24 368.82 373.90 364.55 377.97&#10;  Q 361.34 381.04 357.32 384.26&#10;  Q 353.67 387.19 349.82 390.21&#10;  Q 343.70 395.01 335.31 399.43&#10;  C 332.08 401.13 329.67 403.86 326.38 405.39&#10;  C 320.47 408.13 314.68 411.61 308.67 413.56&#10;  C 302.19 415.65 296.30 419.60 290.27 421.43&#10;  C 284.07 423.31 277.40 425.00 270.96 426.31&#10;  C 266.57 427.21 262.51 428.62 258.04 429.46&#10;  Q 230.22 434.66 206.51 433.16&#10;  Q 182.25 431.62 153.51 423.60&#10;  Q 144.11 420.97 135.53 417.02&#10;  Q 125.51 412.40 117.65 408.65&#10;  C 113.16 406.51 108.43 404.16 104.59 400.87&#10;  C 102.06 398.70 98.81 397.49 96.08 395.48&#10;  Q 90.97 391.72 85.53 388.39&#10;  Q 81.61 385.99 77.57 382.10&#10;  Q 73.63 378.30 69.15 374.20&#10;  C 66.06 371.37 63.18 368.13 60.17 365.14&#10;  Q 52.94 357.97 45.94 349.13&#10;  Q 40.71 342.54 35.84 334.20&#10;  Q 33.45 330.11 30.52 326.44&#10;  C 25.35 319.97 22.83 312.15 19.33 304.70&#10;  Q 13.25 291.75 9.04 277.98&#10;  Q 7.17 271.86 6.27 265.42&#10;  C 5.44 259.51 3.89 253.77 3.18 247.84&#10;  Q 1.06 230.03 1.67 211.50&#10;  C 1.73 209.65 2.29 207.50 2.35 205.42&#10;  Q 2.73 192.19 5.42 179.30&#10;  C 6.63 173.51 7.34 167.29 9.00 161.95&#10;  Q 12.62 150.33 17.66 137.40&#10;  C 19.25 133.33 21.30 129.47 23.20 125.47&#10;  Q 28.57 114.13 35.46 102.84&#10;  C 37.29 99.83 40.34 97.78 41.81 94.68&#10;  C 43.39 91.36 44.82 88.39 47.32 85.54&#10;  Q 54.39 77.46 61.90 69.45&#10;  C 64.50 66.67 67.34 64.21 70.11 61.59&#10;  C 72.95 58.90 76.04 56.68 78.80 53.82&#10;  Q 81.06 51.48 84.20 49.24&#10;  Q 93.75 42.42 102.87 36.62&#10;  Q 107.66 33.57 112.01 30.93&#10;  Q 128.04 21.20 147.06 14.44&#10;  Q 149.25 13.66 151.52 13.05&#10;  C 153.56 12.51 155.33 11.52 157.39 10.94&#10;  Q 173.98 6.29 190.59 4.98&#10;  Q 194.88 4.64 201.14 3.51&#10;  Q 209.62 1.99 221.02 2.60&#10;  Q 222.92 2.70 224.72 2.87&#10;  Q 237.05 4.07 251.08 5.62&#10;  Q 261.64 6.78 271.06 9.22&#10;  Q 294.10 15.18 314.79 25.10&#10;  C 322.95 29.01 330.62 34.13 338.33 38.85&#10;  C 345.18 43.04 351.88 48.28 358.30 53.29&#10;  C 362.73 56.75 366.74 60.90 370.93 64.72&#10;  Q 378.20 71.33 384.01 78.91&#10;  Q 386.53 82.20 389.47 85.22&#10;  Q 391.54 87.36 392.95 89.81&#10;  C 395.22 93.76 398.49 96.92 400.64 100.92&#10;  C 403.23 105.74 406.82 109.95 409.16 114.84&#10;  Q 413.31 123.52 417.91 132.56&#10;  Q 419.19 135.07 420.03 137.93&#10;  C 420.76 140.40 422.53 142.27 423.25 144.82&#10;  Q 424.79 150.24 426.90 155.81&#10;  C 428.10 158.95 428.53 162.20 429.59 165.38&#10;  Q 430.20 167.23 430.60 169.19&#10;  Q 432.93 180.55 434.25 190.74&#10;  Q 435.21 198.12 436.16 205.82&#10;  Q 436.51 208.67 436.54 211.24&#10;  C 436.58 215.14 437.55 218.96 437.03 222.80&#10;  Q 436.63 225.77 436.52 228.78&#10;  C 436.41 231.64 436.42 234.37 436.05 237.19&#10;  Q 434.24 251.00 431.61 265.37&#10;  Q 429.82 275.10 426.96 283.16&#10;  Q 422.49 295.73 416.66 309.11&#10;  Z&#10;  M 7.89 237.24&#10;  C 8.14 243.36 9.46 249.46 10.56 255.50&#10;  Q 11.60 261.18 12.98 266.17&#10;  C 14.41 271.32 15.38 276.80 17.30 281.80&#10;  C 18.72 285.52 19.37 289.48 21.03 292.96&#10;  C 22.79 296.65 23.81 300.59 25.65 304.20&#10;  Q 30.13 313.01 32.46 316.83&#10;  C 34.89 320.83 37.47 325.46 39.54 328.72&#10;  C 42.40 333.21 44.93 337.94 48.33 341.99&#10;  Q 54.50 349.34 61.16 356.97&#10;  Q 64.62 360.94 69.06 364.80&#10;  Q 74.34 369.39 78.73 374.86&#10;  Q 81.10 377.81 85.37 379.99&#10;  C 87.58 381.12 89.29 383.08 91.32 384.51&#10;  C 98.16 389.33 105.04 394.15 112.21 398.18&#10;  C 118.96 401.97 125.58 406.37 133.04 409.00&#10;  C 136.79 410.32 140.38 412.06 144.13 413.30&#10;  Q 153.04 416.25 162.53 419.63&#10;  C 169.17 422.00 176.13 422.87 183.24 424.28&#10;  Q 191.08 425.85 198.95 426.16&#10;  C 206.37 426.45 213.93 427.18 221.32 426.87&#10;  Q 224.72 426.73 228.35 426.68&#10;  Q 238.70 426.55 248.45 424.73&#10;  Q 252.95 423.90 257.57 423.41&#10;  C 263.99 422.74 269.64 420.23 275.75 418.56&#10;  Q 284.03 416.31 293.02 413.26&#10;  C 295.74 412.34 298.13 411.04 300.81 410.12&#10;  Q 303.77 409.09 306.49 407.61&#10;  C 309.74 405.85 313.08 404.77 316.35 402.76&#10;  Q 318.86 401.22 321.22 400.09&#10;  Q 328.37 396.67 335.04 391.92&#10;  C 337.32 390.30 340.03 389.58 342.10 387.73&#10;  Q 344.57 385.53 347.80 383.74&#10;  C 350.07 382.48 350.60 379.97 353.11 378.95&#10;  C 356.56 377.54 358.11 374.54 360.86 372.25&#10;  Q 370.11 364.52 374.55 359.17&#10;  C 380.16 352.40 386.47 345.87 391.41 338.99&#10;  Q 405.15 319.91 413.72 300.07&#10;  Q 417.02 292.46 419.69 283.68&#10;  Q 422.29 275.12 424.85 266.73&#10;  C 425.74 263.80 426.23 260.89 426.82 257.92&#10;  C 427.63 253.82 427.59 249.74 428.77 245.77&#10;  C 429.90 241.95 429.59 237.91 430.28 234.01&#10;  C 430.77 231.26 430.66 227.78 430.13 225.03&#10;  C 429.41 221.22 430.79 218.03 430.45 214.29&#10;  Q 429.86 208.01 429.53 201.71&#10;  C 429.39 199.15 428.76 196.77 428.67 194.16&#10;  C 428.51 189.49 426.93 184.90 426.48 180.23&#10;  C 426.06 175.78 423.94 170.93 422.61 166.30&#10;  Q 420.61 159.34 418.34 151.72&#10;  C 415.55 142.33 410.86 133.37 406.77 124.31&#10;  Q 405.68 121.90 404.27 119.66&#10;  C 401.67 115.51 399.75 111.19 397.01 107.08&#10;  C 394.79 103.76 392.99 100.09 390.43 97.00&#10;  C 386.50 92.25 382.86 87.46 378.66 82.75&#10;  Q 373.73 77.23 369.10 71.70&#10;  C 365.16 66.98 357.32 62.09 351.90 56.91&#10;  Q 348.63 53.79 345.41 51.59&#10;  C 337.84 46.41 329.17 40.51 320.34 35.97&#10;  C 314.59 33.01 309.07 29.17 303.26 26.75&#10;  C 299.02 24.98 294.82 23.16 290.51 21.72&#10;  Q 277.73 17.44 267.75 14.76&#10;  Q 258.24 12.21 246.27 10.50&#10;  Q 239.34 9.52 232.68 9.45&#10;  C 221.55 9.35 210.49 9.51 199.34 9.49&#10;  Q 196.96 9.49 194.62 9.82&#10;  C 186.58 10.94 178.99 12.89 170.81 14.14&#10;  C 165.33 14.97 159.31 17.74 153.45 19.32&#10;  C 151.07 19.96 148.98 21.23 146.55 21.73&#10;  C 142.33 22.60 138.46 24.53 134.44 26.27&#10;  Q 130.98 27.76 127.33 29.82&#10;  C 115.14 36.71 102.45 43.36 91.50 52.31&#10;  Q 85.82 56.96 80.48 60.85&#10;  C 76.54 63.73 73.58 67.75 69.81 70.89&#10;  Q 66.60 73.57 63.89 76.65&#10;  Q 58.13 83.20 52.03 90.16&#10;  C 49.15 93.45 47.03 97.25 44.36 100.75&#10;  Q 41.39 104.66 39.03 108.82&#10;  Q 32.22 120.80 27.59 130.16&#10;  Q 25.23 134.95 23.54 139.93&#10;  Q 20.66 148.40 17.43 156.55&#10;  C 15.13 162.36 14.50 168.28 12.68 174.13&#10;  C 11.23 178.75 10.78 183.42 9.75 188.12&#10;  Q 8.65 193.17 8.31 198.58&#10;  Q 7.10 218.04 7.89 237.24&#10;  Z"/>
<path fill="#0d0d0e" d="&#10;  M 137.46 322.17&#10;  Q 161.94 322.47 193.00 322.32&#10;  Q 195.50 322.30 197.86 322.47&#10;  A 0.51 0.50 -88.8 0 1 198.33 322.97&#10;  L 198.37 337.97&#10;  A 0.63 0.63 0.0 0 1 197.71 338.60&#10;  Q 191.62 338.37 185.87 339.08&#10;  Q 181.60 339.60 177.00 339.05&#10;  C 173.09 338.59 169.34 339.79 165.51 339.07&#10;  C 163.06 338.61 161.57 339.29 159.33 339.29&#10;  Q 133.52 339.30 108.92 339.22&#10;  C 106.16 339.21 101.92 338.64 100.04 336.47&#10;  C 97.32 333.32 94.82 328.50 96.92 324.61&#10;  Q 101.64 315.86 107.05 309.54&#10;  C 110.74 305.23 112.66 299.73 116.31 295.55&#10;  Q 122.27 288.74 123.73 286.24&#10;  Q 130.41 274.82 136.98 266.79&#10;  Q 139.27 263.99 140.93 261.08&#10;  C 142.46 258.38 144.50 256.07 146.08 253.35&#10;  Q 148.73 248.76 151.91 244.31&#10;  Q 159.46 233.75 167.27 222.74&#10;  C 169.30 219.90 172.58 216.64 173.93 214.20&#10;  Q 178.05 206.73 181.98 199.32&#10;  C 183.81 195.85 186.29 193.11 187.45 189.25&#10;  A 2.75 2.72 40.8 0 0 187.30 187.32&#10;  Q 186.00 184.59 183.87 182.26&#10;  A 0.58 0.58 0.0 0 1 183.78 181.62&#10;  Q 185.72 177.64 188.81 174.93&#10;  C 193.24 171.03 197.18 166.25 201.01 161.81&#10;  C 202.45 160.13 204.43 158.85 205.77 157.52&#10;  C 211.42 151.87 217.26 146.49 222.66 140.67&#10;  Q 225.34 137.79 228.54 134.73&#10;  Q 245.53 118.47 261.69 101.23&#10;  C 265.71 96.95 270.34 92.82 274.83 88.87&#10;  C 287.67 77.56 306.00 74.22 322.51 77.71&#10;  C 328.27 78.93 332.77 81.66 337.74 84.70&#10;  C 345.34 89.35 352.37 98.91 355.32 107.23&#10;  C 356.29 109.96 357.76 112.44 358.21 115.34&#10;  Q 358.89 119.71 359.25 123.93&#10;  C 360.18 134.87 356.42 146.24 350.47 154.94&#10;  C 347.46 159.34 344.34 164.06 340.50 167.81&#10;  Q 334.34 173.81 327.71 180.63&#10;  C 324.36 184.06 320.31 187.34 316.98 191.04&#10;  Q 314.88 193.40 312.85 195.33&#10;  Q 305.11 202.74 297.58 210.35&#10;  C 296.09 211.85 294.74 213.84 293.38 215.14&#10;  C 288.91 219.38 283.95 223.20 280.16 228.01&#10;  C 278.01 230.72 275.14 232.79 272.85 235.36&#10;  Q 267.73 241.13 265.28 243.04&#10;  Q 262.46 245.24 260.11 247.53&#10;  C 256.54 251.01 252.33 253.99 248.13 256.46&#10;  C 245.99 257.72 243.34 258.92 240.78 258.85&#10;  Q 230.84 258.57 218.73 261.14&#10;  Q 217.03 261.50 215.61 262.43&#10;  C 210.69 265.65 206.25 270.18 201.54 273.66&#10;  Q 197.29 276.80 193.22 279.99&#10;  Q 191.66 281.21 190.01 282.51&#10;  Q 181.33 289.38 170.69 296.24&#10;  Q 165.91 299.32 160.73 303.66&#10;  Q 156.58 307.12 150.44 310.91&#10;  C 145.86 313.74 141.47 317.54 137.01 320.72&#10;  Q 135.02 322.14 137.46 322.17&#10;  Z&#10;  M 323.32 115.48&#10;  L 323.10 117.98&#10;  A 3.23 3.22 -69.3 0 0 324.39 120.84&#10;  C 327.17 122.90 325.76 126.24 323.09 127.51&#10;  Q 320.19 128.90 318.06 131.75&#10;  C 317.06 133.10 314.88 134.54 313.25 134.92&#10;  Q 310.78 135.48 309.31 137.42&#10;  Q 306.86 140.69 304.08 143.15&#10;  C 298.19 148.40 293.15 154.40 287.25 159.63&#10;  Q 284.50 162.08 282.04 164.73&#10;  Q 271.31 176.29 259.51 187.07&#10;  C 256.84 189.52 254.82 192.30 252.28 194.77&#10;  C 246.41 200.47 241.03 206.57 235.09 212.37&#10;  A 0.80 0.79 -44.7 0 0 235.08 213.51&#10;  L 251.32 229.42&#10;  A 2.09 2.09 0.0 0 0 254.33 229.33&#10;  C 256.20 227.28 257.47 225.06 259.59 223.17&#10;  Q 265.38 218.01 270.81 212.01&#10;  C 274.24 208.23 278.16 204.64 281.76 201.05&#10;  C 283.54 199.27 284.43 197.04 286.45 195.66&#10;  C 289.84 193.34 292.73 190.05 295.59 187.03&#10;  Q 298.31 184.16 301.33 181.37&#10;  Q 310.97 172.48 319.86 162.73&#10;  C 322.38 159.98 325.36 157.99 327.80 155.12&#10;  Q 332.20 149.94 336.55 144.74&#10;  C 339.87 140.79 340.22 136.93 341.42 132.27&#10;  Q 342.32 128.75 341.82 125.06&#10;  Q 339.95 111.23 330.05 101.36&#10;  Q 325.79 97.11 320.35 95.33&#10;  C 313.74 93.17 307.02 92.47 300.27 94.78&#10;  C 292.02 97.61 285.06 102.63 278.96 109.04&#10;  Q 273.26 115.01 267.68 121.26&#10;  C 266.07 123.07 264.14 124.46 262.41 126.16&#10;  Q 251.24 137.09 240.60 148.19&#10;  C 239.01 149.85 236.88 151.49 235.59 153.03&#10;  Q 233.03 156.08 229.94 158.89&#10;  C 224.47 163.86 221.84 166.55 218.00 170.72&#10;  C 214.65 174.36 210.65 177.43 207.67 181.50&#10;  Q 206.25 183.44 207.99 185.33&#10;  Q 214.84 192.72 221.38 199.00&#10;  A 0.82 0.82 0.0 0 0 222.63 198.86&#10;  C 225.04 195.22 228.80 193.65 231.56 190.47&#10;  Q 237.59 183.54 244.72 177.37&#10;  Q 249.12 173.56 252.50 169.71&#10;  C 255.84 165.91 259.41 161.43 263.33 158.50&#10;  Q 265.60 156.80 266.34 155.84&#10;  Q 267.78 153.96 271.59 150.09&#10;  Q 285.56 135.91 299.36 122.11&#10;  C 300.94 120.53 301.68 118.54 303.71 117.35&#10;  Q 307.74 115.00 310.06 114.27&#10;  Q 315.88 112.43 322.29 114.04&#10;  A 1.36 1.36 0.0 0 1 323.32 115.48&#10;  Z&#10;  M 194.39 211.21&#10;  C 193.10 213.49 192.42 216.16 190.68 218.22&#10;  A 1.62 1.60 -34.8 0 0 190.39 219.80&#10;  Q 194.28 230.62 201.68 239.64&#10;  C 203.99 242.45 207.73 245.92 211.67 245.04&#10;  Q 216.41 243.98 221.23 243.59&#10;  C 224.92 243.30 228.56 242.57 232.18 241.92&#10;  C 233.99 241.60 235.74 241.92 237.47 241.29&#10;  A 0.47 0.47 0.0 0 0 237.66 240.52&#10;  Q 228.99 231.13 220.26 222.14&#10;  C 217.95 219.75 215.19 217.96 213.25 215.43&#10;  C 209.81 210.94 205.44 207.52 201.65 203.53&#10;  Q 200.92 202.77 200.42 201.84&#10;  Q 200.16 201.36 199.88 201.82&#10;  Q 197.14 206.38 194.39 211.21&#10;  Z&#10;  M 166.61 254.04&#10;  A 2.72 2.72 0.0 0 0 166.33 255.67&#10;  Q 167.56 264.63 174.83 271.23&#10;  A 2.38 2.38 0.0 0 0 177.99 271.27&#10;  Q 182.23 267.62 187.23 264.57&#10;  Q 192.92 261.10 194.36 255.06&#10;  Q 194.46 254.60 194.11 254.30&#10;  C 188.20 249.29 184.21 243.08 179.88 236.85&#10;  A 0.85 0.84 48.7 0 0 178.56 236.76&#10;  Q 171.37 244.79 166.61 254.04&#10;  Z&#10;  M 157.14 283.73&#10;  C 159.18 281.91 161.59 282.33 163.35 279.80&#10;  A 1.10 1.10 0.0 0 0 162.75 278.11&#10;  Q 157.15 276.50 153.52 273.19&#10;  Q 153.00 272.72 152.59 273.28&#10;  C 150.60 275.99 148.27 277.96 146.27 280.89&#10;  Q 139.44 290.91 130.82 301.33&#10;  Q 130.33 301.91 130.65 302.53&#10;  A 0.56 0.56 0.0 0 0 131.45 302.75&#10;  Q 139.06 297.94 147.24 292.05&#10;  C 148.79 290.93 149.77 289.43 151.24 288.41&#10;  Q 154.32 286.25 157.14 283.73&#10;  Z&#10;  M 129.1430 317.9976&#10;  A 2.25 1.16 98.1 0 0 130.6084 315.9334&#10;  A 2.25 1.16 98.1 0 0 129.7770 313.5424&#10;  A 2.25 1.16 98.1 0 0 128.3116 315.6066&#10;  A 2.25 1.16 98.1 0 0 129.1430 317.9976&#10;  Z"/>
</svg>